<svg width="24" height="23" viewBox="0 0 24 23" fill="none" xmlns="http://www.w3.org/2000/svg">
<path opacity="0.1" fill-rule="evenodd" clip-rule="evenodd" d="M0.851562 11.5933C0.851562 5.44243 5.83782 0.456177 11.9887 0.456177C18.1395 0.456177 23.1258 5.44243 23.1258 11.5933C23.1258 17.7441 18.1395 22.7304 11.9887 22.7304C5.83782 22.7304 0.851562 17.7441 0.851562 11.5933Z" fill="white"/>
<path fill-rule="evenodd" clip-rule="evenodd" d="M11.9889 5.6535C10.3758 5.6535 10.1733 5.66056 9.53973 5.68939C8.90739 5.71835 8.47576 5.81846 8.09808 5.96535C7.70741 6.11706 7.37602 6.32 7.04586 6.65029C6.71546 6.98044 6.51251 7.31184 6.3603 7.70238C6.21304 8.08018 6.11281 8.51193 6.08435 9.14403C6.05601 9.77762 6.04858 9.98019 6.04858 11.5934C6.04858 13.2065 6.05576 13.4084 6.08447 14.0419C6.11355 14.6743 6.21366 15.1059 6.36043 15.4836C6.51226 15.8743 6.71521 16.2057 7.04549 16.5358C7.37552 16.8662 7.70692 17.0697 8.09734 17.2214C8.47526 17.3683 8.90702 17.4684 9.53924 17.4973C10.1728 17.5262 10.3752 17.5332 11.9882 17.5332C13.6015 17.5332 13.8033 17.5262 14.4369 17.4973C15.0692 17.4684 15.5014 17.3683 15.8793 17.2214C16.2698 17.0697 16.6007 16.8662 16.9308 16.5358C17.2612 16.2057 17.4641 15.8743 17.6163 15.4837C17.7623 15.1059 17.8626 14.6742 17.8923 14.0421C17.9207 13.4085 17.9282 13.2065 17.9282 11.5934C17.9282 9.98019 17.9207 9.77774 17.8923 9.14416C17.8626 8.51181 17.7623 8.08018 17.6163 7.70251C17.4641 7.31184 17.2612 6.98044 16.9308 6.65029C16.6004 6.31988 16.27 6.11694 15.8789 5.96535C15.5003 5.81846 15.0684 5.71835 14.436 5.68939C13.8024 5.66056 13.6007 5.6535 11.9871 5.6535H11.9889ZM11.4561 6.7239C11.6142 6.72365 11.7907 6.7239 11.9889 6.7239C13.5748 6.7239 13.7628 6.72959 14.3891 6.75805C14.9682 6.78453 15.2826 6.8813 15.4919 6.96261C15.7691 7.07027 15.9668 7.19896 16.1745 7.40686C16.3824 7.61475 16.5111 7.81275 16.619 8.08994C16.7003 8.29907 16.7972 8.61339 16.8236 9.19253C16.852 9.81869 16.8582 10.0068 16.8582 11.592C16.8582 13.1772 16.852 13.3653 16.8236 13.9914C16.7971 14.5706 16.7003 14.8849 16.619 15.094C16.5114 15.3712 16.3824 15.5686 16.1745 15.7764C15.9666 15.9843 15.7693 16.113 15.4919 16.2206C15.2828 16.3023 14.9682 16.3988 14.3891 16.4253C13.7629 16.4538 13.5748 16.4599 11.9889 16.4599C10.4028 16.4599 10.2149 16.4538 9.58871 16.4253C9.00958 16.3986 8.69526 16.3018 8.48576 16.2205C8.20856 16.1128 8.01057 15.9841 7.80267 15.7762C7.59478 15.5683 7.46608 15.3708 7.35817 15.0935C7.27687 14.8844 7.17998 14.5701 7.15362 13.9909C7.12516 13.3648 7.11946 13.1767 7.11946 11.5905C7.11946 10.0043 7.12516 9.8172 7.15362 9.19104C7.1801 8.61191 7.27687 8.29759 7.35817 8.08821C7.46583 7.81102 7.59478 7.61302 7.80267 7.40513C8.01057 7.19723 8.20856 7.06853 8.48576 6.96063C8.69514 6.87895 9.00958 6.78243 9.58871 6.75582C10.1367 6.73108 10.349 6.72365 11.4561 6.72241V6.7239ZM15.1596 7.71016C14.766 7.71016 14.4468 8.02906 14.4468 8.4227C14.4468 8.81621 14.766 9.13548 15.1596 9.13548C15.5531 9.13548 15.8723 8.81621 15.8723 8.4227C15.8723 8.02918 15.5531 7.71016 15.1596 7.71016ZM11.9889 8.54298C10.3044 8.54298 8.93858 9.90877 8.93858 11.5933C8.93858 13.2779 10.3044 14.6431 11.9889 14.6431C13.6735 14.6431 15.0388 13.2779 15.0388 11.5933C15.0388 9.90877 13.6735 8.54298 11.9889 8.54298ZM11.9889 9.61339C13.0823 9.61339 13.9689 10.4998 13.9689 11.5933C13.9689 12.6868 13.0823 13.5733 11.9889 13.5733C10.8954 13.5733 10.009 12.6868 10.009 11.5933C10.009 10.4998 10.8954 9.61339 11.9889 9.61339Z" fill="white"/>
</svg>
