<svg width="308" height="302" viewBox="0 0 308 302" fill="none" xmlns="http://www.w3.org/2000/svg">
<path d="M262.213 301.489C262.213 301.59 212.257 301.676 150.655 301.676C89.0519 301.676 39.0747 301.59 39.0747 301.489C39.0747 301.388 89.0231 301.302 150.655 301.302C212.286 301.302 262.213 301.395 262.213 301.489Z" fill="#263238"/>
<path d="M213.538 213.419C202.423 205.657 199.905 191.247 200.344 178.29C200.416 176.132 200.178 173.845 201.207 171.952C202.236 170.06 204.639 168.758 206.574 169.665C208.178 170.42 208.876 172.291 209.775 173.837C210.975 175.897 212.734 177.576 214.847 178.679C216.221 179.398 217.926 179.83 219.286 179.082C221.156 178.053 221.372 175.485 221.358 173.327C221.358 169.312 221.334 165.303 221.286 161.298C221.157 159.148 221.375 156.99 221.933 154.91C222.602 152.867 224.091 150.975 226.127 150.399C228.163 149.824 230.703 151.011 231.163 153.111C231.242 154.001 231.264 154.895 231.228 155.787C231.286 156.687 231.703 157.672 232.545 157.946C233.386 158.219 234.264 157.593 234.911 156.96C237.127 154.802 238.638 151.989 240.041 149.212C241.444 146.435 242.818 143.579 244.832 141.212C246.846 138.845 249.63 136.968 252.745 136.788C255.86 136.608 259.105 138.522 259.882 141.543C260.659 144.565 258.896 147.651 257.004 150.104C254.149 153.746 250.784 156.956 247.012 159.636C246.275 160.038 245.688 160.666 245.336 161.428C244.868 162.866 246.228 164.305 247.645 164.758C249.249 165.291 250.99 165.125 252.681 165.327C254.371 165.528 256.17 166.262 256.81 167.845C257.688 170.046 255.846 172.348 254.04 173.859C250.415 176.88 246.297 179.258 241.868 180.888C240.285 181.463 238.623 181.974 237.343 183.082C236.062 184.19 235.3 186.125 236.07 187.643C236.839 189.161 238.818 189.643 240.48 189.333C242.141 189.024 243.616 188.132 245.199 187.535C248.156 186.42 251.968 186.621 253.832 189.175C254.409 190.055 254.774 191.056 254.899 192.101C255.024 193.146 254.905 194.206 254.551 195.197C253.831 197.169 252.723 198.976 251.292 200.513C246.58 206.142 240.458 210.42 233.552 212.908C226.696 215.282 220.343 215.93 213.531 213.433" fill="#4CAF4F"/>
<path d="M256.717 138.565C256.717 138.565 256.652 138.637 256.508 138.766L255.868 139.335C255.307 139.838 254.479 140.572 253.436 141.543C250.479 144.289 247.732 147.254 245.22 150.413C243.616 152.406 241.954 154.665 240.185 157.118C238.415 159.571 236.588 162.219 234.775 165.032C232.842 167.998 231.072 171.067 229.473 174.226C228.638 175.873 227.904 177.593 227.149 179.348L224.919 184.708C221.979 191.458 219.419 198.368 217.25 205.405C215.503 211.162 214.299 217.07 213.653 223.052C213.235 227.089 213.167 231.154 213.452 235.203C213.567 236.641 213.675 237.742 213.775 238.49C213.818 238.85 213.847 239.138 213.876 239.346V239.641C213.845 239.548 213.823 239.451 213.811 239.354C213.775 239.145 213.732 238.864 213.675 238.505C213.545 237.785 213.408 236.649 213.279 235.21C212.932 231.154 212.956 227.075 213.351 223.023C213.956 217.016 215.134 211.08 216.869 205.297C219.019 198.241 221.573 191.313 224.516 184.549L226.804 179.211C227.559 177.463 228.3 175.729 229.142 174.075C230.752 170.907 232.537 167.83 234.487 164.859C236.329 161.981 238.185 159.377 239.933 156.946C241.681 154.514 243.372 152.241 244.969 150.255C247.506 147.104 250.289 144.16 253.292 141.45C254.357 140.493 255.206 139.773 255.781 139.291L256.45 138.752C256.532 138.68 256.622 138.618 256.717 138.565Z" fill="#263238"/>
<path d="M229.235 174.06C229.134 173.764 229.064 173.458 229.027 173.147C228.911 172.55 228.782 171.708 228.631 170.614C228.322 168.456 228.005 165.499 227.667 162.226C227.329 158.953 226.948 155.989 226.631 153.852C226.466 152.787 226.322 151.931 226.221 151.334C226.142 151.029 226.101 150.715 226.099 150.399C226.223 150.687 226.312 150.989 226.365 151.298C226.523 151.888 226.703 152.737 226.904 153.809C227.314 155.967 227.717 158.902 228.055 162.183C228.394 165.463 228.681 168.341 228.904 170.578C229.012 171.586 229.106 172.442 229.178 173.125C229.234 173.433 229.253 173.747 229.235 174.06Z" fill="#263238"/>
<path d="M256.918 168.895C256.568 168.971 256.211 169.015 255.853 169.025C255.134 169.089 254.112 169.176 252.846 169.319C250.314 169.593 246.832 170.096 243.012 170.816C239.192 171.535 235.76 172.348 233.293 172.974C232.062 173.291 231.07 173.578 230.415 173.773C230.066 173.897 229.704 173.984 229.336 174.032C229.668 173.864 230.015 173.727 230.372 173.622C231.048 173.384 232.026 173.053 233.249 172.701C235.703 171.981 239.134 171.125 242.969 170.391C246.217 169.77 249.494 169.314 252.789 169.025C254.062 168.917 255.091 168.873 255.81 168.859C256.18 168.834 256.551 168.846 256.918 168.895Z" fill="#263238"/>
<path d="M217.221 204.793C217.144 204.689 217.081 204.576 217.034 204.455L216.559 203.455C216.149 202.585 215.595 201.297 214.933 199.722C213.595 196.556 211.89 192.125 210.077 187.204C208.264 182.283 206.595 177.852 205.329 174.65C204.711 173.096 204.2 171.823 203.819 170.873L203.416 169.845C203.36 169.726 203.321 169.6 203.301 169.47C203.377 169.575 203.44 169.688 203.488 169.809L203.962 170.809C204.365 171.679 204.926 172.967 205.588 174.542C206.926 177.708 208.631 182.139 210.444 187.06C212.257 191.981 213.926 196.412 215.192 199.614C215.811 201.167 216.322 202.441 216.696 203.39C216.861 203.801 216.998 204.11 217.106 204.419C217.162 204.538 217.201 204.664 217.221 204.793Z" fill="#263238"/>
<path d="M253.968 192.945C253.853 193.011 253.73 193.062 253.601 193.096L252.537 193.456L248.602 194.729C245.278 195.808 240.688 197.348 235.652 199.045C230.616 200.743 226.005 202.254 222.66 203.261C220.991 203.772 219.631 204.16 218.689 204.419L217.602 204.7C217.476 204.74 217.346 204.767 217.214 204.779C217.329 204.713 217.452 204.662 217.581 204.628L218.645 204.268L222.581 202.995C225.904 201.916 230.494 200.376 235.53 198.678C240.566 196.981 245.17 195.47 248.515 194.463C250.191 193.952 251.544 193.564 252.494 193.305L253.58 193.024C253.706 192.984 253.836 192.957 253.968 192.945Z" fill="#263238"/>
<path d="M238.976 18.4384L235.271 19.7621L233.681 14.9205C230.76 5.99266 221.451 1.25177 212.897 4.26608C204.344 7.2804 199.79 17.0715 202.711 25.9993L204.301 30.841L200.581 32.1719C199.163 32.7219 198.011 33.7974 197.365 35.1747C196.72 36.5521 196.63 38.1253 197.114 39.5674L207.423 71.0701C207.637 71.784 207.992 72.4476 208.468 73.0215C208.943 73.5953 209.529 74.0678 210.191 74.4107C210.852 74.7536 211.576 74.96 212.319 75.0177C213.062 75.0753 213.809 74.9831 214.516 74.7463L252.911 61.0128C254.348 60.4637 255.516 59.3787 256.169 57.986C256.823 56.5933 256.911 55.0015 256.414 53.5454L246.098 22.0426C245.878 21.3307 245.518 20.6704 245.037 20.1009C244.557 19.5315 243.967 19.0647 243.302 18.7283C242.638 18.3919 241.912 18.1929 241.169 18.1431C240.425 18.0933 239.68 18.1937 238.976 18.4384ZM209.71 23.4742C208.923 21.1529 209.064 18.6168 210.105 16.3973C211.146 14.1779 213.005 12.4473 215.293 11.5681C216.423 11.1815 217.619 11.0264 218.81 11.1122C220.001 11.198 221.163 11.5229 222.226 12.0674C223.289 12.6119 224.231 13.3649 224.996 14.2815C225.762 15.1981 226.335 16.2596 226.681 17.4024L228.264 22.244L211.293 28.3158L209.71 23.4742ZM231.293 51.4304L233.926 59.4733C233.974 59.6346 233.958 59.8083 233.882 59.9583C233.806 60.1084 233.674 60.2232 233.516 60.279L229.825 61.5956C229.678 61.6363 229.521 61.6186 229.387 61.5462C229.253 61.4737 229.152 61.3522 229.106 61.2071L226.451 53.2001C224.987 53.1203 223.583 52.5953 222.426 51.6953C221.269 50.7953 220.414 49.5633 219.976 48.1643C219.351 46.3146 219.465 44.2946 220.295 42.5272C221.125 40.7598 222.607 39.3821 224.43 38.6825C225.33 38.375 226.282 38.2518 227.231 38.3203C228.18 38.3888 229.105 38.6476 229.951 39.0813C230.798 39.515 231.549 40.1147 232.158 40.8446C232.768 41.5745 233.225 42.4197 233.501 43.3298C233.964 44.7511 234.002 46.2764 233.611 47.7191C233.22 49.1617 232.417 50.459 231.3 51.4519L231.293 51.4304Z" fill="#4CAF4F"/>
<path d="M235.106 19.6758C235.106 19.7765 228.235 22.3592 219.689 25.431C211.142 28.5029 204.171 30.9705 204.135 30.8985C204.099 30.8266 211.005 28.2223 219.559 25.1433C228.113 22.0642 235.07 19.5823 235.106 19.6758Z" fill="#263238"/>
<path d="M243.264 20.9995C243.295 21.0619 243.322 21.1269 243.343 21.1937C243.4 21.3376 243.465 21.5247 243.551 21.7549C243.738 22.2801 243.997 23.0067 244.321 23.9131L247.084 31.9561C248.235 35.3661 249.609 39.4091 251.134 43.8982C251.853 46.15 252.702 48.4952 253.493 50.9628C253.917 52.2344 254.1 53.5737 254.033 54.9123C253.972 55.6085 253.774 56.2857 253.45 56.9051C253.105 57.5224 252.643 58.0671 252.091 58.5093C250.979 59.3207 249.746 59.9497 248.436 60.3726L244.731 61.7035L237.717 64.2142L225.839 68.4444L217.818 71.2644L215.66 71.9838L215.084 72.1709C215.023 72.1982 214.957 72.2153 214.89 72.2212C214.89 72.2212 214.948 72.2212 215.07 72.1349L215.631 71.9119L217.789 71.099L225.768 68.1638L237.623 63.8473L244.623 61.315L248.328 59.9769C249.6 59.5712 250.798 58.9613 251.875 58.1712C252.389 57.7609 252.819 57.2552 253.141 56.6821C253.446 56.1093 253.629 55.4799 253.681 54.8332C253.747 53.5434 253.571 52.2527 253.163 51.0275C252.386 48.5815 251.565 46.2147 250.824 43.963C249.328 39.4667 247.947 35.4092 246.853 31.9992C245.76 28.5892 244.839 25.8483 244.206 23.9203C243.904 22.9779 243.674 22.2441 243.487 21.7117L243.314 21.1362C243.292 21.0926 243.275 21.0468 243.264 20.9995Z" fill="#263238"/>
<path d="M223.005 11.0789C223.005 11.0789 222.624 10.8919 221.919 10.6041C220.914 10.218 219.851 10.004 218.775 9.97105C217.18 9.91636 215.593 10.2161 214.128 10.8487C212.346 11.6365 210.823 12.9106 209.732 14.5249C208.634 16.1346 208.045 18.0368 208.042 19.9852C208.057 21.5821 208.299 23.1687 208.761 24.6973C209.135 26.0066 209.524 27.0498 209.782 27.7764C209.935 28.1454 210.06 28.5254 210.157 28.913C209.952 28.5679 209.781 28.2042 209.646 27.8267C209.351 27.1073 208.926 26.0858 208.509 24.7692C207.997 23.2246 207.718 21.6121 207.682 19.9852C207.663 17.9632 208.265 15.9842 209.408 14.3163C210.537 12.643 212.123 11.3295 213.977 10.5322C215.487 9.89611 217.124 9.61552 218.761 9.71206C219.86 9.76809 220.94 10.0241 221.948 10.4674C222.217 10.5917 222.477 10.736 222.725 10.8991C222.827 10.944 222.922 11.0047 223.005 11.0789Z" fill="#263238"/>
<path d="M223.336 39.2293C223.451 39.1597 223.571 39.0996 223.696 39.0494C224.056 38.8869 224.429 38.7546 224.811 38.6538C225.417 38.4748 226.043 38.3685 226.674 38.3372C227.533 38.2911 228.392 38.4208 229.199 38.7185C231.041 39.366 232.732 41.2436 233.566 43.7544C233.966 45.1017 233.966 46.5364 233.566 47.8838C233.122 49.3461 232.327 50.6775 231.25 51.7613L231.293 51.5671C232.25 54.1929 233.293 57.0418 234.372 60.0129L234.437 60.1928L234.257 60.2575L232.609 60.8043L229.012 62.0057L228.832 62.0632L228.775 61.8834C227.789 58.9051 226.71 56.1281 225.897 53.4016L226.055 53.5239C224.649 53.4071 223.308 52.8792 222.199 52.0059C221.196 51.2334 220.374 50.2514 219.789 49.1283C219.262 48.1324 218.999 47.0176 219.027 45.891C219.06 44.7395 219.348 43.6097 219.869 42.5824C220.39 41.5551 221.132 40.6557 222.041 39.9487C222.416 39.6448 222.836 39.402 223.286 39.2293C222.879 39.4704 222.486 39.7321 222.106 40.0134C221.107 40.8586 220.342 41.9461 219.883 43.1716C219.489 44.0958 219.305 45.0957 219.344 46.0994C219.382 47.1032 219.643 48.086 220.106 48.9772C220.681 50.0576 221.483 51.0002 222.458 51.7398C223.516 52.5698 224.795 53.0702 226.135 53.1786H226.257L226.293 53.2865C227.084 55.9627 228.171 58.7612 229.17 61.7539L228.933 61.6388L232.53 60.4374L234.17 59.8834L234.055 60.128C232.983 57.1569 231.947 54.3009 230.998 51.675V51.5671L231.084 51.4808C232.13 50.4419 232.91 49.166 233.357 47.7615C233.739 46.4726 233.739 45.1008 233.357 43.8119C232.573 41.3947 230.955 39.5602 229.199 38.9128C228.422 38.6131 227.593 38.4737 226.76 38.5027C226.139 38.5169 225.521 38.6014 224.919 38.7545C223.847 39.0207 223.343 39.2653 223.336 39.2293Z" fill="#263238"/>
<path d="M201.099 246.951L129.238 246.62C125.088 246.597 121.117 244.928 118.196 241.979C115.276 239.031 113.646 235.043 113.663 230.893L114.425 50.747C114.434 48.6909 114.847 46.6567 115.642 44.7607C116.438 42.8646 117.599 41.1438 119.059 39.6966C120.52 38.2495 122.251 37.1044 124.154 36.3267C126.058 35.5491 128.096 35.1542 130.152 35.1646L202.006 35.4956C206.156 35.5165 210.128 37.1837 213.049 40.131C215.971 43.0782 217.603 47.0646 217.588 51.2146L216.826 231.354C216.817 233.411 216.404 235.445 215.609 237.342C214.814 239.239 213.653 240.961 212.193 242.409C210.732 243.858 209.001 245.004 207.098 245.783C205.194 246.562 203.156 246.959 201.099 246.951Z" fill="#455A64"/>
<path d="M201.898 41.6896H187.97C187.516 41.698 187.068 41.7959 186.651 41.9776C186.234 42.1594 185.858 42.4214 185.542 42.7487C185.227 43.0761 184.979 43.4624 184.813 43.8855C184.647 44.3086 184.566 44.7603 184.575 45.2147V47.7398C184.583 48.1939 184.502 48.6452 184.336 49.0679C184.17 49.4906 183.922 49.8764 183.607 50.2032C183.291 50.53 182.915 50.7913 182.498 50.9723C182.081 51.1532 181.633 51.2502 181.179 51.2577L154.029 51.1354C153.11 51.1109 152.239 50.7229 151.606 50.0566C150.974 49.3902 150.632 48.5001 150.655 47.5816V45.0564C150.678 44.1391 150.337 43.25 149.706 42.5839C149.074 41.9178 148.205 41.5289 147.288 41.5026H142.389L130.195 41.445C127.294 41.4278 124.505 42.5605 122.438 44.5951C120.371 46.6298 119.195 49.4006 119.166 52.3009L118.447 228.138C118.44 229.577 118.717 231.003 119.262 232.335C119.806 233.667 120.608 234.878 121.62 235.9C122.633 236.922 123.837 237.735 125.164 238.292C126.491 238.849 127.914 239.138 129.353 239.145L201.064 239.476C202.503 239.483 203.93 239.206 205.263 238.661C206.596 238.116 207.808 237.314 208.831 236.3C209.854 235.287 210.667 234.082 211.224 232.754C211.781 231.427 212.071 230.002 212.078 228.563L212.797 52.7253C212.814 49.8169 211.676 47.0206 209.632 44.9512C207.588 42.8818 204.806 41.7086 201.898 41.6896Z" fill="white"/>
<path d="M192.251 216.016L138.928 215.786C138.374 215.786 137.928 215.182 137.935 214.448L137.993 200.498C137.993 199.779 138.446 199.16 139 199.16L192.323 199.405C192.629 199.458 192.904 199.628 193.089 199.878C193.274 200.129 193.355 200.441 193.315 200.75L193.265 214.685C193.265 215.426 192.805 216.023 192.251 216.016Z" fill="#4CAF4F"/>
<path d="M154.908 209.339C154.716 209.339 154.525 209.318 154.336 209.277C154.152 209.231 153.984 209.171 153.833 209.096C153.682 209.016 153.561 208.93 153.471 208.835L153.674 208.507C153.765 208.601 153.876 208.684 154.008 208.756C154.144 208.828 154.293 208.884 154.455 208.926C154.618 208.964 154.78 208.982 154.942 208.982C155.176 208.982 155.38 208.952 155.553 208.892C155.731 208.832 155.868 208.743 155.967 208.626C156.065 208.509 156.114 208.367 156.114 208.201C156.114 208.069 156.076 207.964 156.001 207.884C155.925 207.801 155.827 207.735 155.706 207.686C155.585 207.633 155.451 207.586 155.304 207.545C155.157 207.503 155.01 207.458 154.863 207.409C154.716 207.36 154.58 207.3 154.455 207.228C154.335 207.156 154.236 207.062 154.161 206.945C154.089 206.828 154.053 206.681 154.053 206.503C154.053 206.254 154.121 206.041 154.257 205.864C154.393 205.683 154.58 205.545 154.818 205.451C155.055 205.356 155.329 205.309 155.638 205.309C155.872 205.309 156.097 205.337 156.312 205.394C156.531 205.451 156.716 205.536 156.866 205.649L156.691 205.988C156.548 205.883 156.383 205.803 156.199 205.751C156.014 205.694 155.819 205.666 155.616 205.666C155.385 205.666 155.184 205.698 155.01 205.762C154.836 205.826 154.701 205.919 154.602 206.039C154.508 206.156 154.461 206.298 154.461 206.464C154.461 206.596 154.497 206.703 154.569 206.786C154.644 206.869 154.742 206.937 154.863 206.99C154.987 207.043 155.123 207.092 155.27 207.137C155.418 207.179 155.565 207.224 155.712 207.273C155.859 207.318 155.993 207.377 156.114 207.449C156.238 207.517 156.338 207.607 156.414 207.72C156.489 207.83 156.527 207.971 156.527 208.145C156.527 208.398 156.457 208.615 156.317 208.796C156.178 208.973 155.985 209.109 155.74 209.203C155.499 209.294 155.221 209.339 154.908 209.339ZM157.236 209.305L158.028 205.343H158.441L157.649 209.305H157.236ZM158.944 209.305L159.736 205.343H160.076L162.074 208.801L161.943 208.779L162.628 205.343H163.041L162.249 209.305H161.909L159.911 205.847L160.042 205.869L159.357 209.305H158.944ZM165.41 209.339C165.021 209.339 164.689 209.271 164.414 209.135C164.138 208.996 163.927 208.803 163.78 208.558C163.633 208.309 163.559 208.02 163.559 207.692C163.559 207.367 163.614 207.062 163.723 206.775C163.837 206.488 163.997 206.235 164.204 206.017C164.416 205.794 164.67 205.62 164.968 205.496C165.267 205.371 165.602 205.309 165.976 205.309C166.308 205.309 166.599 205.36 166.848 205.462C167.1 205.56 167.3 205.702 167.448 205.886L167.153 206.141C167.017 205.983 166.849 205.868 166.65 205.796C166.453 205.72 166.223 205.683 165.959 205.683C165.653 205.683 165.378 205.736 165.133 205.841C164.891 205.943 164.684 206.085 164.51 206.266C164.34 206.447 164.208 206.658 164.114 206.9C164.02 207.141 163.972 207.4 163.972 207.675C163.972 207.928 164.027 208.152 164.136 208.349C164.25 208.541 164.416 208.692 164.635 208.801C164.857 208.911 165.131 208.965 165.455 208.965C165.693 208.965 165.91 208.926 166.106 208.847C166.306 208.767 166.491 208.654 166.661 208.507L166.831 208.847C166.65 208.998 166.434 209.118 166.185 209.209C165.94 209.296 165.682 209.339 165.41 209.339ZM166.446 208.784L166.734 207.324H167.136L166.831 208.847L166.446 208.784ZM171.088 209.339C170.726 209.339 170.429 209.265 170.199 209.118C169.973 208.971 169.818 208.767 169.735 208.507C169.652 208.247 169.644 207.95 169.712 207.618L170.165 205.343H170.578L170.126 207.618C170.084 207.815 170.073 207.996 170.092 208.162C170.11 208.328 170.16 208.471 170.239 208.592C170.322 208.713 170.437 208.805 170.584 208.869C170.731 208.933 170.912 208.965 171.127 208.965C171.399 208.965 171.629 208.916 171.818 208.818C172.007 208.716 172.159 208.567 172.276 208.371C172.397 208.175 172.488 207.933 172.548 207.647L173.006 205.343H173.414L172.95 207.675C172.844 208.218 172.635 208.632 172.322 208.915C172.012 209.198 171.601 209.339 171.088 209.339ZM173.889 209.305L174.682 205.343H176.102C176.551 205.343 176.899 205.441 177.144 205.637C177.393 205.834 177.517 206.109 177.517 206.464C177.517 206.803 177.442 207.092 177.291 207.33C177.144 207.564 176.933 207.743 176.657 207.867C176.382 207.992 176.055 208.054 175.678 208.054H174.37L174.597 207.856L174.303 209.305H173.889ZM174.586 207.89L174.438 207.686H175.684C176.133 207.686 176.48 207.586 176.725 207.386C176.974 207.186 177.099 206.892 177.099 206.503C177.099 206.243 177.01 206.045 176.833 205.909C176.655 205.773 176.401 205.705 176.068 205.705H174.846L175.067 205.496L174.586 207.89Z" fill="#E8E8E3"/>
<path d="M149.564 93.3791L131.061 93.2952L131.046 96.6907L149.549 96.7747L149.564 93.3791Z" fill="#4CAF4F"/>
<path opacity="0.1" d="M149.564 93.3791L131.061 93.2952L131.046 96.6907L149.549 96.7747L149.564 93.3791Z" fill="black"/>
<path d="M203.804 114.227C203.95 114.213 204.092 114.179 204.229 114.127C204.428 114.049 204.601 113.916 204.728 113.745C204.856 113.573 204.932 113.369 204.948 113.156C204.948 112.012 204.948 110.343 204.948 108.199C204.948 107.127 204.948 105.925 204.948 104.602C204.948 104.278 204.948 103.94 204.948 103.602C204.995 103.274 204.924 102.94 204.747 102.659C204.648 102.525 204.519 102.415 204.37 102.339C204.222 102.263 204.058 102.222 203.891 102.221H202.768H192.373L132.202 101.998C132.048 101.995 131.895 102.03 131.758 102.098C131.62 102.167 131.501 102.268 131.411 102.393C131.237 102.675 131.17 103.009 131.223 103.336C131.223 104.055 131.223 104.774 131.223 105.494C131.223 106.933 131.223 108.371 131.223 109.81C131.223 110.53 131.223 111.249 131.223 111.968C131.194 112.304 131.194 112.641 131.223 112.976C131.261 113.119 131.331 113.252 131.429 113.365C131.526 113.477 131.648 113.565 131.785 113.623C131.926 113.68 132.078 113.706 132.231 113.702H135.892L151.87 113.789L178.92 113.954L197.157 114.098L202.114 114.155H203.401C203.696 114.155 203.84 114.155 203.84 114.155H203.401H202.114H197.157H178.92L151.87 114.069L135.892 114.004H132.231C132.029 114.013 131.828 113.978 131.641 113.904C131.451 113.823 131.283 113.7 131.148 113.544C131.014 113.388 130.916 113.204 130.864 113.004C130.822 112.816 130.808 112.622 130.821 112.429V111.897C130.821 111.177 130.821 110.458 130.821 109.738C130.821 108.3 130.821 106.861 130.821 105.422C130.821 104.702 130.821 103.983 130.821 103.264C130.807 103.072 130.807 102.88 130.821 102.688C130.848 102.477 130.929 102.276 131.058 102.105C131.182 101.932 131.346 101.791 131.537 101.694C131.727 101.598 131.938 101.549 132.151 101.551L192.323 101.882L202.718 101.954H203.84C204.038 101.955 204.233 102.002 204.408 102.094C204.583 102.185 204.734 102.317 204.848 102.48C205.05 102.792 205.132 103.168 205.078 103.537C205.078 103.875 205.078 104.213 205.078 104.537C205.078 105.846 205.078 107.048 205.078 108.134C205.078 110.292 205.027 111.947 205.013 113.098C204.995 113.319 204.915 113.531 204.781 113.708C204.647 113.885 204.466 114.021 204.258 114.098C204.121 114.182 203.965 114.227 203.804 114.227Z" fill="#E0E0E0"/>
<path d="M170.46 105.609H136.619V108.781H170.46V105.609Z" fill="#4CAF4F"/>
<path opacity="0.2" d="M170.46 105.609H136.619V108.781H170.46V105.609Z" fill="white"/>
<path d="M149.438 124.356L130.935 124.272L130.919 127.667L149.422 127.751L149.438 124.356Z" fill="#4CAF4F"/>
<path opacity="0.1" d="M149.438 124.356L130.935 124.272L130.919 127.667L149.422 127.751L149.438 124.356Z" fill="black"/>
<path d="M203.337 145.205C203.482 145.187 203.626 145.161 203.768 145.126C203.969 145.062 204.154 144.956 204.311 144.814C204.467 144.673 204.591 144.499 204.675 144.306C204.788 144.015 204.832 143.703 204.804 143.392C204.804 143.047 204.804 142.673 204.804 142.255C204.804 141.421 204.804 140.471 204.804 139.378V134.81C204.839 134.479 204.766 134.146 204.596 133.86C204.418 133.567 204.139 133.349 203.812 133.248C203.453 133.184 203.088 133.165 202.725 133.191H192.373L132.411 132.968C132.088 132.969 131.777 133.086 131.535 133.3C131.292 133.513 131.136 133.806 131.094 134.126C131.094 134.81 131.094 135.565 131.094 136.284C131.094 137.723 131.094 139.162 131.094 140.601C131.094 141.32 131.094 142.04 131.094 142.759C131.067 143.095 131.082 143.433 131.137 143.766C131.227 144.058 131.412 144.311 131.662 144.486C131.928 144.654 132.24 144.735 132.554 144.716H133.554H135.633L151.554 144.795L178.51 144.96L196.682 145.104L201.625 145.162H196.682H178.51L151.54 145.133L135.619 145.075H132.49C132.101 145.099 131.714 144.995 131.389 144.781C131.062 144.554 130.823 144.221 130.713 143.838C130.648 143.473 130.629 143.1 130.655 142.73C130.655 142.011 130.655 141.291 130.655 140.572C130.655 139.133 130.655 137.694 130.655 136.256C130.655 135.536 130.655 134.817 130.655 134.097C130.708 133.686 130.908 133.308 131.219 133.034C131.531 132.76 131.931 132.608 132.346 132.608L192.308 132.939L202.661 133.018C203.046 132.995 203.433 133.021 203.812 133.097C204.185 133.219 204.501 133.476 204.696 133.817C204.883 134.134 204.963 134.501 204.927 134.867C204.927 135.205 204.927 135.536 204.927 135.867C204.927 137.169 204.927 138.363 204.927 139.464C204.927 140.565 204.927 141.493 204.927 142.342C204.927 142.752 204.927 143.133 204.927 143.486C204.953 143.807 204.901 144.131 204.776 144.428C204.682 144.626 204.547 144.803 204.379 144.944C204.212 145.086 204.016 145.189 203.804 145.248C203.647 145.261 203.489 145.246 203.337 145.205Z" fill="#E0E0E0"/>
<path d="M149.298 156.678L130.795 156.594L130.78 159.989L149.283 160.073L149.298 156.678Z" fill="#4CAF4F"/>
<path opacity="0.1" d="M149.298 156.678L130.795 156.594L130.78 159.989L149.283 160.073L149.298 156.678Z" fill="black"/>
<path d="M203.193 177.514C203.338 177.496 203.483 177.47 203.625 177.434C203.825 177.371 204.009 177.266 204.165 177.125C204.321 176.985 204.446 176.813 204.531 176.622C204.644 176.331 204.688 176.018 204.66 175.708C204.66 175.355 204.66 174.988 204.66 174.564C204.66 173.737 204.66 172.78 204.66 171.686V167.118C204.695 166.787 204.622 166.454 204.452 166.169C204.27 165.881 203.992 165.667 203.668 165.564C203.31 165.498 202.945 165.476 202.581 165.499H192.229L132.267 165.276C131.944 165.277 131.633 165.395 131.391 165.608C131.149 165.821 130.992 166.115 130.95 166.435C130.95 167.154 130.95 167.874 130.95 168.593C130.95 170.032 130.95 171.471 130.95 172.909C130.95 173.629 130.95 174.348 130.95 175.068C130.923 175.401 130.938 175.737 130.993 176.068C131.079 176.361 131.265 176.615 131.518 176.787C131.783 176.959 132.096 177.04 132.411 177.017H135.54L151.46 177.104L178.417 177.269L196.589 177.413L201.531 177.47H196.589H178.417L151.46 177.391L135.54 177.327H132.411C132.021 177.353 131.634 177.249 131.31 177.032C130.982 176.805 130.744 176.472 130.634 176.089C130.569 175.724 130.55 175.352 130.576 174.981C130.576 174.262 130.576 173.542 130.576 172.823C130.576 171.384 130.576 169.945 130.576 168.507C130.576 167.787 130.576 167.068 130.576 166.312C130.627 165.902 130.826 165.524 131.136 165.249C131.446 164.975 131.846 164.824 132.259 164.823L192.222 165.154L202.574 165.233C202.96 165.21 203.347 165.236 203.725 165.312C204.099 165.435 204.414 165.691 204.61 166.032C204.796 166.349 204.877 166.717 204.84 167.082C204.84 167.42 204.84 167.758 204.84 168.082C204.84 169.384 204.84 170.578 204.84 171.679C204.84 172.78 204.84 173.708 204.84 174.557C204.84 174.967 204.84 175.348 204.84 175.701C204.868 176.022 204.816 176.346 204.689 176.643C204.596 176.842 204.461 177.018 204.293 177.159C204.126 177.301 203.929 177.404 203.718 177.463C203.549 177.521 203.369 177.538 203.193 177.514Z" fill="#E0E0E0"/>
<path d="M169.737 137.484L135.897 137.33L135.883 140.502L169.723 140.656L169.737 137.484Z" fill="#4CAF4F"/>
<path opacity="0.2" d="M169.737 137.484L135.897 137.33L135.883 140.502L169.723 140.656L169.737 137.484Z" fill="white"/>
<path d="M138.957 171.643C138.936 171.933 138.83 172.209 138.653 172.439C138.476 172.669 138.235 172.842 137.961 172.936C137.687 173.031 137.39 173.042 137.109 172.97C136.828 172.898 136.575 172.744 136.38 172.529C136.186 172.314 136.058 172.046 136.014 171.76C135.97 171.473 136.011 171.179 136.132 170.916C136.254 170.652 136.45 170.43 136.696 170.277C136.942 170.123 137.228 170.046 137.518 170.053C137.919 170.076 138.295 170.255 138.564 170.553C138.834 170.85 138.975 171.242 138.957 171.643Z" fill="#4CAF4F"/>
<path d="M143.54 171.665C143.554 171.868 143.526 172.071 143.458 172.263C143.39 172.454 143.284 172.63 143.145 172.779C143.006 172.927 142.839 173.046 142.652 173.127C142.466 173.208 142.265 173.25 142.061 173.25C141.858 173.25 141.657 173.208 141.47 173.127C141.284 173.046 141.116 172.927 140.978 172.779C140.839 172.63 140.732 172.454 140.664 172.263C140.597 172.071 140.569 171.868 140.583 171.665C140.569 171.462 140.597 171.258 140.664 171.067C140.732 170.875 140.839 170.699 140.978 170.551C141.116 170.402 141.284 170.284 141.47 170.202C141.657 170.121 141.858 170.08 142.061 170.08C142.265 170.08 142.466 170.121 142.652 170.202C142.839 170.284 143.006 170.402 143.145 170.551C143.284 170.699 143.39 170.875 143.458 171.067C143.526 171.258 143.554 171.462 143.54 171.665Z" fill="#4CAF4F"/>
<path d="M148.129 171.686C148.108 171.976 148.002 172.253 147.825 172.482C147.648 172.712 147.408 172.885 147.133 172.979C146.859 173.074 146.563 173.085 146.282 173.013C146.001 172.941 145.747 172.787 145.553 172.572C145.358 172.357 145.231 172.09 145.187 171.803C145.143 171.516 145.184 171.223 145.305 170.959C145.426 170.695 145.622 170.473 145.868 170.32C146.115 170.166 146.401 170.089 146.691 170.096C147.091 170.121 147.465 170.301 147.734 170.598C148.003 170.895 148.145 171.286 148.129 171.686Z" fill="#4CAF4F"/>
<path d="M152.712 171.708C152.691 171.997 152.585 172.274 152.408 172.504C152.231 172.734 151.99 172.907 151.716 173.001C151.442 173.095 151.146 173.107 150.865 173.035C150.584 172.962 150.33 172.809 150.135 172.594C149.941 172.379 149.813 172.111 149.769 171.824C149.725 171.538 149.766 171.244 149.888 170.98C150.009 170.717 150.205 170.495 150.451 170.341C150.697 170.188 150.983 170.11 151.273 170.118C151.673 170.142 152.048 170.322 152.317 170.619C152.586 170.917 152.728 171.307 152.712 171.708Z" fill="#4CAF4F"/>
<path d="M157.295 171.722C157.275 172.012 157.17 172.29 156.994 172.521C156.818 172.751 156.577 172.925 156.303 173.021C156.029 173.116 155.732 173.129 155.451 173.057C155.169 172.986 154.915 172.833 154.72 172.618C154.524 172.403 154.396 172.135 154.352 171.848C154.307 171.561 154.348 171.267 154.469 171.003C154.59 170.739 154.786 170.517 155.033 170.363C155.279 170.21 155.566 170.132 155.856 170.14C156.255 170.164 156.628 170.343 156.897 170.638C157.166 170.934 157.309 171.323 157.295 171.722Z" fill="#4CAF4F"/>
<path d="M161.885 171.744C161.865 172.032 161.761 172.309 161.587 172.539C161.412 172.769 161.174 172.943 160.902 173.04C160.629 173.137 160.335 173.151 160.054 173.083C159.773 173.014 159.519 172.865 159.322 172.654C159.125 172.442 158.994 172.178 158.945 171.893C158.897 171.608 158.932 171.315 159.048 171.05C159.163 170.785 159.354 170.56 159.596 170.402C159.838 170.244 160.121 170.161 160.41 170.161C160.815 170.176 161.198 170.351 161.474 170.648C161.751 170.945 161.898 171.339 161.885 171.744Z" fill="#4CAF4F"/>
<path d="M166.467 171.765C166.481 171.968 166.454 172.172 166.386 172.363C166.318 172.555 166.211 172.731 166.073 172.879C165.934 173.028 165.766 173.147 165.58 173.228C165.393 173.309 165.192 173.351 164.989 173.351C164.785 173.351 164.584 173.309 164.398 173.228C164.211 173.147 164.044 173.028 163.905 172.879C163.766 172.731 163.66 172.555 163.592 172.363C163.524 172.172 163.496 171.968 163.51 171.765C163.496 171.563 163.524 171.359 163.592 171.167C163.66 170.976 163.766 170.8 163.905 170.651C164.044 170.503 164.211 170.384 164.398 170.303C164.584 170.222 164.785 170.18 164.989 170.18C165.192 170.18 165.393 170.222 165.58 170.303C165.766 170.384 165.934 170.503 166.073 170.651C166.211 170.8 166.318 170.976 166.386 171.167C166.454 171.359 166.481 171.563 166.467 171.765Z" fill="#4CAF4F"/>
<path d="M171.05 171.787C171.03 172.075 170.927 172.352 170.752 172.582C170.577 172.812 170.339 172.986 170.067 173.083C169.795 173.18 169.5 173.195 169.219 173.126C168.939 173.057 168.684 172.908 168.487 172.697C168.29 172.485 168.159 172.221 168.111 171.936C168.062 171.651 168.098 171.358 168.213 171.093C168.329 170.829 168.519 170.603 168.761 170.445C169.003 170.287 169.286 170.204 169.575 170.204C169.98 170.219 170.363 170.394 170.639 170.691C170.916 170.988 171.063 171.382 171.05 171.787Z" fill="#4CAF4F"/>
<path d="M175.632 171.809C175.613 172.098 175.508 172.376 175.332 172.607C175.155 172.838 174.915 173.012 174.641 173.107C174.366 173.203 174.07 173.215 173.788 173.144C173.507 173.072 173.253 172.919 173.057 172.704C172.862 172.489 172.734 172.222 172.689 171.935C172.645 171.648 172.686 171.354 172.807 171.09C172.928 170.826 173.124 170.603 173.37 170.45C173.617 170.296 173.903 170.218 174.194 170.226C174.592 170.25 174.966 170.429 175.235 170.725C175.504 171.02 175.646 171.409 175.632 171.809Z" fill="#4CAF4F"/>
<g opacity="0.2">
<path d="M138.957 171.643C138.936 171.933 138.83 172.209 138.653 172.439C138.476 172.669 138.235 172.842 137.961 172.936C137.687 173.031 137.39 173.042 137.109 172.97C136.828 172.898 136.575 172.744 136.38 172.529C136.186 172.314 136.058 172.046 136.014 171.76C135.97 171.473 136.011 171.179 136.132 170.916C136.254 170.652 136.45 170.43 136.696 170.277C136.942 170.123 137.228 170.046 137.518 170.053C137.919 170.076 138.295 170.255 138.564 170.553C138.834 170.85 138.975 171.242 138.957 171.643Z" fill="white"/>
<path d="M143.54 171.665C143.554 171.868 143.526 172.071 143.458 172.263C143.39 172.454 143.284 172.63 143.145 172.779C143.006 172.927 142.839 173.046 142.652 173.127C142.466 173.208 142.265 173.25 142.061 173.25C141.858 173.25 141.657 173.208 141.47 173.127C141.284 173.046 141.116 172.927 140.978 172.779C140.839 172.63 140.732 172.454 140.664 172.263C140.597 172.071 140.569 171.868 140.583 171.665C140.569 171.462 140.597 171.258 140.664 171.067C140.732 170.875 140.839 170.699 140.978 170.551C141.116 170.402 141.284 170.284 141.47 170.202C141.657 170.121 141.858 170.08 142.061 170.08C142.265 170.08 142.466 170.121 142.652 170.202C142.839 170.284 143.006 170.402 143.145 170.551C143.284 170.699 143.39 170.875 143.458 171.067C143.526 171.258 143.554 171.462 143.54 171.665Z" fill="white"/>
<path d="M148.129 171.686C148.108 171.976 148.002 172.253 147.825 172.482C147.648 172.712 147.408 172.885 147.133 172.979C146.859 173.074 146.563 173.085 146.282 173.013C146.001 172.941 145.747 172.787 145.553 172.572C145.358 172.357 145.231 172.09 145.187 171.803C145.143 171.516 145.184 171.223 145.305 170.959C145.426 170.695 145.622 170.473 145.868 170.32C146.115 170.166 146.401 170.089 146.691 170.096C147.091 170.121 147.465 170.301 147.734 170.598C148.003 170.895 148.145 171.286 148.129 171.686Z" fill="white"/>
<path d="M152.712 171.708C152.691 171.997 152.585 172.274 152.408 172.504C152.231 172.734 151.99 172.907 151.716 173.001C151.442 173.095 151.146 173.107 150.865 173.035C150.584 172.962 150.33 172.809 150.135 172.594C149.941 172.379 149.813 172.111 149.769 171.824C149.725 171.538 149.766 171.244 149.888 170.98C150.009 170.717 150.205 170.495 150.451 170.341C150.697 170.188 150.983 170.11 151.273 170.118C151.673 170.142 152.048 170.322 152.317 170.619C152.586 170.917 152.728 171.307 152.712 171.708Z" fill="white"/>
<path d="M157.295 171.722C157.275 172.012 157.17 172.29 156.994 172.521C156.818 172.751 156.577 172.925 156.303 173.021C156.029 173.116 155.732 173.129 155.451 173.057C155.169 172.986 154.915 172.833 154.72 172.618C154.524 172.403 154.396 172.135 154.352 171.848C154.307 171.561 154.348 171.267 154.469 171.003C154.59 170.739 154.786 170.517 155.033 170.363C155.279 170.21 155.566 170.132 155.856 170.14C156.255 170.164 156.628 170.343 156.897 170.638C157.166 170.934 157.309 171.323 157.295 171.722Z" fill="white"/>
<path d="M161.885 171.744C161.865 172.032 161.761 172.308 161.587 172.539C161.412 172.769 161.174 172.943 160.902 173.04C160.629 173.136 160.335 173.151 160.054 173.083C159.773 173.014 159.519 172.865 159.322 172.653C159.125 172.442 158.994 172.178 158.945 171.893C158.897 171.608 158.932 171.315 159.048 171.05C159.163 170.785 159.354 170.56 159.596 170.402C159.838 170.244 160.121 170.16 160.41 170.161C160.815 170.176 161.198 170.351 161.474 170.648C161.751 170.944 161.898 171.339 161.885 171.744Z" fill="white"/>
<path d="M166.467 171.765C166.481 171.968 166.454 172.172 166.386 172.363C166.318 172.555 166.211 172.731 166.073 172.879C165.934 173.028 165.766 173.147 165.58 173.228C165.393 173.309 165.192 173.351 164.989 173.351C164.785 173.351 164.584 173.309 164.398 173.228C164.211 173.147 164.044 173.028 163.905 172.879C163.766 172.731 163.66 172.555 163.592 172.363C163.524 172.172 163.496 171.968 163.51 171.765C163.496 171.563 163.524 171.359 163.592 171.167C163.66 170.976 163.766 170.8 163.905 170.651C164.044 170.503 164.211 170.384 164.398 170.303C164.584 170.222 164.785 170.18 164.989 170.18C165.192 170.18 165.393 170.222 165.58 170.303C165.766 170.384 165.934 170.503 166.073 170.651C166.211 170.8 166.318 170.976 166.386 171.167C166.454 171.359 166.481 171.563 166.467 171.765Z" fill="white"/>
<path d="M171.05 171.787C171.03 172.075 170.927 172.352 170.752 172.582C170.577 172.812 170.339 172.986 170.067 173.083C169.795 173.18 169.5 173.195 169.219 173.126C168.939 173.057 168.684 172.908 168.487 172.697C168.29 172.485 168.159 172.221 168.111 171.936C168.062 171.651 168.098 171.358 168.213 171.093C168.329 170.829 168.519 170.603 168.761 170.445C169.003 170.287 169.286 170.204 169.575 170.204C169.98 170.219 170.363 170.394 170.639 170.691C170.916 170.988 171.063 171.382 171.05 171.787Z" fill="white"/>
<path d="M175.632 171.809C175.613 172.098 175.508 172.376 175.332 172.607C175.155 172.838 174.915 173.012 174.641 173.107C174.366 173.202 174.07 173.215 173.788 173.144C173.507 173.072 173.253 172.919 173.057 172.704C172.862 172.489 172.734 172.222 172.689 171.935C172.645 171.648 172.686 171.354 172.807 171.09C172.928 170.826 173.124 170.603 173.37 170.449C173.617 170.296 173.903 170.218 174.194 170.226C174.592 170.25 174.966 170.429 175.235 170.725C175.504 171.02 175.646 171.409 175.632 171.809Z" fill="white"/>
</g>
<path d="M169.122 67.9552C169.622 67.7351 170.046 67.373 170.341 66.9137C170.637 66.4545 170.79 65.9186 170.784 65.3725C170.802 65.0176 170.748 64.6626 170.625 64.3291C170.502 63.9956 170.313 63.6907 170.068 63.4328C169.823 63.175 169.529 62.9697 169.202 62.8294C168.876 62.6891 168.524 62.6167 168.169 62.6167C167.813 62.6167 167.461 62.6891 167.135 62.8294C166.808 62.9697 166.514 63.175 166.269 63.4328C166.024 63.6907 165.835 63.9956 165.712 64.3291C165.589 64.6626 165.535 65.0176 165.554 65.3725C165.543 65.924 165.695 66.4664 165.992 66.9312C166.289 67.396 166.717 67.7623 167.223 67.984C163.194 68.5883 163.374 72.9623 163.374 72.9623L172.899 73.0054C172.899 73.0054 173.122 68.5523 169.122 67.9552Z" fill="#4CAF4F"/>
<path opacity="0.1" d="M169.122 67.9552C169.622 67.7351 170.046 67.373 170.341 66.9137C170.637 66.4545 170.79 65.9186 170.784 65.3725C170.802 65.0176 170.748 64.6626 170.625 64.3291C170.502 63.9956 170.313 63.6907 170.068 63.4328C169.823 63.175 169.529 62.9697 169.202 62.8294C168.876 62.6891 168.524 62.6167 168.169 62.6167C167.813 62.6167 167.461 62.6891 167.135 62.8294C166.808 62.9697 166.514 63.175 166.269 63.4328C166.024 63.6907 165.835 63.9956 165.712 64.3291C165.589 64.6626 165.535 65.0176 165.554 65.3725C165.543 65.924 165.695 66.4664 165.992 66.9312C166.289 67.396 166.717 67.7623 167.223 67.984C163.194 68.5883 163.374 72.9623 163.374 72.9623L172.899 73.0054C172.899 73.0054 173.122 68.5523 169.122 67.9552Z" fill="black"/>
<path d="M184.599 75.8265L150.651 75.6725L150.632 79.7299L184.581 79.8839L184.599 75.8265Z" fill="#4CAF4F"/>
<path opacity="0.2" d="M184.599 75.8265L150.651 75.6725L150.632 79.7299L184.581 79.8839L184.599 75.8265Z" fill="white"/>
<path d="M59.7934 96.8537H59.4553L58.4769 96.9256C57.9474 96.9574 57.4209 97.0272 56.9014 97.1343C56.5649 97.1815 56.2311 97.2463 55.9014 97.3285L54.7864 97.6378C52.8884 98.2201 51.0978 99.107 49.4843 100.264C47.3526 101.811 45.5727 103.792 44.2614 106.076C43.4908 107.393 42.8775 108.796 42.4342 110.256C41.9683 111.843 41.7001 113.481 41.6356 115.134C41.5927 116.002 41.6072 116.872 41.6788 117.738C41.6788 118.177 41.8011 118.616 41.8586 119.062C41.907 119.511 41.9912 119.956 42.1104 120.393C42.7573 123.279 44.0699 125.975 45.9435 128.265C47.8171 130.554 50.1998 132.374 52.9015 133.579C54.8569 134.423 56.9528 134.894 59.0812 134.968C61.2795 135.089 63.48 134.773 65.5559 134.04L66.1889 133.802H66.2753L66.3472 133.846L75.4189 138.45L75.1528 138.68C74.1816 135.673 73.2463 132.759 72.3399 129.961V129.853L72.419 129.774C74.6197 127.557 76.2533 124.843 77.1815 121.86C78.0221 119.134 78.2674 116.258 77.9009 113.429C77.5748 110.914 76.7663 108.486 75.5196 106.278C74.4451 104.381 73.0588 102.679 71.419 101.242C70.0662 100.105 68.5688 99.1519 66.9659 98.4076C65.7531 97.8845 64.4899 97.4868 63.1962 97.2206L61.7574 96.9832L60.7143 96.9041L60.0812 96.8609H59.8654C59.9371 96.8529 60.0095 96.8529 60.0812 96.8609H60.7215L61.7646 96.9041L63.2034 97.1127C64.5132 97.3594 65.7936 97.7428 67.0235 98.2565C68.6539 98.992 70.1782 99.9429 71.5557 101.084C73.2256 102.514 74.6413 104.217 75.7427 106.12C77.0247 108.352 77.858 110.812 78.1958 113.364C78.5928 116.237 78.3646 119.162 77.5268 121.939C76.5926 124.984 74.9337 127.756 72.6924 130.018L72.7355 129.831C73.642 132.63 74.5844 135.543 75.5628 138.543L75.6995 138.982L75.2894 138.773L66.2177 134.176H66.376L65.7285 134.414C63.6127 135.158 61.3715 135.481 59.1316 135.364C56.9573 135.281 54.8176 134.793 52.8224 133.925C49.0165 132.295 45.8501 129.462 43.8082 125.86C42.8686 124.197 42.1824 122.402 41.7723 120.537C41.66 120.089 41.5759 119.635 41.5205 119.177C41.463 118.724 41.3694 118.278 41.3479 117.832C41.1532 115.272 41.4237 112.698 42.1464 110.235C42.6007 108.755 43.2311 107.334 44.024 106.005C45.3665 103.699 47.1836 101.706 49.3548 100.156C50.9948 98.9961 52.8156 98.1161 54.7432 97.5515L55.8727 97.2638C56.2051 97.1866 56.5413 97.1266 56.8798 97.0839C57.4047 96.9867 57.9362 96.929 58.4697 96.9112L59.4553 96.8753C59.5674 96.8602 59.6804 96.853 59.7934 96.8537Z" fill="#4CAF4F"/>
<path d="M63.894 113.63H62.5631L59.6855 109.587V106.933C59.6855 106.933 57.628 106.803 57.8726 110.278C58.1172 113.753 57.8726 112.868 57.8726 112.868C57.8726 112.868 53.5058 112.868 53.1461 113.263C52.7864 113.659 52.7648 117.875 52.7144 120.227C52.6869 120.794 52.8496 121.354 53.1767 121.818C53.5039 122.282 53.9767 122.624 54.5201 122.788C54.6725 122.831 54.8297 122.852 54.9878 122.853C56.0813 122.853 61.6423 121.968 61.6423 121.968H63.9372L63.894 113.63Z" fill="#4CAF4F"/>
<path d="M67.6997 112.918L66.8795 122.011H64.6062V113.105L67.6997 112.918Z" fill="#4CAF4F"/>
<path d="M94.8142 298.043V291.892L83.7857 291.813L83.6921 301.115L84.3756 301.165C87.4187 301.359 99.8572 301.647 101.9 301.014C104.174 300.309 94.8142 298.043 94.8142 298.043Z" fill="#4CAF4F"/>
<path d="M102.159 300.438C102.159 300.539 98.0301 300.625 92.9439 300.625C87.8577 300.625 83.7283 300.539 83.7283 300.438C83.7283 300.338 87.8577 300.251 92.9439 300.251C98.0301 300.251 102.159 300.338 102.159 300.438Z" fill="#263238"/>
<path d="M95.0084 299.302C94.9149 299.251 95.0084 298.928 95.2315 298.582C95.4545 298.237 95.7566 298.093 95.8286 298.165C95.9005 298.237 95.7494 298.51 95.5336 298.805C95.3178 299.1 95.102 299.352 95.0084 299.302Z" fill="#263238"/>
<path d="M95.7134 299.705C95.6127 299.705 95.6631 299.302 95.8789 298.92C96.0947 298.539 96.3825 298.309 96.4616 298.366C96.5407 298.424 96.4112 298.748 96.2098 299.086C96.0084 299.424 95.8069 299.74 95.7134 299.705Z" fill="#263238"/>
<path d="M87.0519 300.41C87.0087 300.41 86.8433 300.28 86.6059 300.007C86.3161 299.655 85.9933 299.333 85.6419 299.043C85.2963 298.767 84.8847 298.586 84.4477 298.518C84.1095 298.474 83.8937 298.518 83.8721 298.474C83.8505 298.431 84.0592 298.28 84.4548 298.251C84.977 298.24 85.4864 298.414 85.8937 298.741C86.2752 299.052 86.597 299.43 86.8433 299.856C87.0087 300.172 87.0951 300.381 87.0519 300.41Z" fill="#263238"/>
<path d="M95.0444 298.144C95.0947 298.23 94.9077 298.446 94.5912 298.561C94.2746 298.676 93.9941 298.633 93.9797 298.561C93.9653 298.489 94.1883 298.338 94.4617 298.237C94.735 298.136 94.9868 298.057 95.0444 298.144Z" fill="#263238"/>
<path d="M94.8719 297.546C94.8719 297.654 94.5842 297.741 94.2101 297.748C93.836 297.755 93.541 297.669 93.5482 297.568C93.5554 297.467 93.8504 297.374 94.2101 297.367C94.5698 297.359 94.8575 297.446 94.8719 297.546Z" fill="#263238"/>
<path d="M121.972 298.043V291.892L110.943 291.813L110.85 301.021L111.533 301.071C114.576 301.266 127.022 301.647 129.058 301.014C131.331 300.309 121.972 298.043 121.972 298.043Z" fill="#4CAF4F"/>
<path d="M129.317 300.453C129.317 300.554 125.195 300.64 120.101 300.64C115.008 300.64 110.893 300.554 110.893 300.453C110.893 300.352 115.015 300.266 120.101 300.266C125.188 300.266 129.317 300.352 129.317 300.453Z" fill="#263238"/>
<path d="M122.166 299.302C122.08 299.251 122.166 298.928 122.389 298.582C122.612 298.237 122.914 298.093 122.986 298.165C123.058 298.237 122.907 298.51 122.691 298.805C122.475 299.1 122.26 299.352 122.166 299.302Z" fill="#263238"/>
<path d="M122.871 299.705C122.778 299.705 122.821 299.302 123.044 298.92C123.267 298.539 123.547 298.309 123.626 298.366C123.706 298.424 123.569 298.748 123.367 299.086C123.166 299.424 122.972 299.74 122.871 299.705Z" fill="#263238"/>
<path d="M114.209 300.41C114.166 300.41 114.008 300.28 113.763 300.007C113.474 299.655 113.151 299.333 112.799 299.043C112.454 298.767 112.042 298.586 111.605 298.518C111.274 298.474 111.051 298.518 111.03 298.474C111.008 298.431 111.217 298.28 111.612 298.251C112.134 298.24 112.644 298.414 113.051 298.741C113.435 299.05 113.757 299.428 114.001 299.856C114.166 300.172 114.253 300.381 114.209 300.41Z" fill="#263238"/>
<path d="M122.202 298.144C122.252 298.23 122.065 298.446 121.749 298.561C121.432 298.676 121.152 298.633 121.137 298.561C121.123 298.489 121.346 298.338 121.619 298.237C121.893 298.136 122.145 298.057 122.202 298.144Z" fill="#263238"/>
<path d="M122.044 297.546C122.044 297.654 121.756 297.741 121.382 297.748C121.008 297.755 120.72 297.669 120.727 297.568C120.734 297.467 121.022 297.374 121.382 297.367C121.742 297.359 122.044 297.446 122.044 297.546Z" fill="#263238"/>
<path d="M162.604 115.386C162.316 115.091 161.604 115.235 161.604 115.235C161.675 114.82 161.675 114.397 161.604 113.983C161.474 113.58 160.568 113.659 160.568 113.659C160.526 113.32 160.526 112.977 160.568 112.637C160.575 112.562 160.559 112.487 160.522 112.421C160.484 112.355 160.428 112.303 160.359 112.271C159.931 112.096 159.47 112.012 159.007 112.026C158.453 111.63 160.697 108.486 161.532 107.479C162.367 106.472 162.215 105.688 161.474 105.688C160.964 105.688 158.345 108.709 157.539 109.724C156.734 110.738 154.597 113.558 154.525 111.307C154.453 109.055 153.547 107.357 152.978 107.069C152.41 106.781 151.806 107.458 152.115 108.084C152.387 108.795 152.556 109.541 152.619 110.299C152.697 110.904 152.67 111.517 152.539 112.112C152.301 113.22 151.976 114.307 151.568 115.364H151.511C151.511 115.364 135.813 130.421 134.677 131.493C133.662 132.457 113.26 130.349 109.166 129.918C107.775 129.714 106.371 129.618 104.965 129.63C103.188 129.709 102.872 129.961 101.102 129.982C96.6325 130.032 92.1735 130.424 87.7641 131.155C85.7675 131.494 83.9024 132.376 82.3725 133.703C80.8425 135.03 79.7064 136.751 79.088 138.68C74.9658 151.557 65.6279 182.039 63.9805 199.16C62.7356 201.418 61.6118 203.74 60.6137 206.117C59.4554 209.268 59.736 209.376 60.1245 209.448C61.1748 209.642 62.369 203.988 62.8151 205.355C63.2611 206.721 60.5489 212.095 61.6496 212.254C63.0884 212.455 64.2323 206.498 64.369 206.024C64.5057 205.549 65.2179 205.7 65.0884 206.146C64.8798 206.779 62.8582 213.491 64.2683 213.707C65.0452 213.822 65.1316 212.405 65.1316 212.405C65.1316 212.405 66.5704 205.98 67.225 206.11C67.8797 206.239 67.1819 210.031 66.8509 211.297C66.52 212.563 66.9804 213.203 67.6567 212.894C68.1171 212.678 69.2178 208.829 69.5199 207.577C69.8221 206.326 70.5775 202.858 71.5918 204.865C72.6062 206.872 74.1457 208.038 74.7788 208.067C74.9215 208.05 75.0559 207.991 75.1649 207.898C75.2739 207.804 75.3524 207.68 75.3903 207.542C75.4282 207.403 75.4238 207.257 75.3776 207.121C75.3315 206.985 75.2457 206.866 75.1313 206.779C74.5868 206.247 74.1194 205.642 73.7429 204.98C73.4073 204.465 73.1638 203.896 73.0234 203.297C72.7335 202.104 72.5648 200.884 72.5199 199.657L72.4048 198.937C74.0162 190.959 78.6564 167.543 85.3541 152.586L88.1022 158.241L89.2964 162.428L81.9729 180.506L113.209 180.096L108.548 162.154L114.209 143.45C120.332 143.586 136.051 143.817 138.669 142.629C141.964 141.191 159.007 119.666 159.007 119.666C160.118 118.803 161.182 117.881 162.194 116.904C162.194 116.904 163.23 116.033 162.604 115.386Z" fill="#FFBE9D"/>
<path d="M80.5987 167.147C81.5051 164.053 86.1597 148.759 86.1597 148.759C86.1597 148.759 88.4474 161.226 87.8431 162.73C87.2872 164.017 86.6305 165.258 85.8791 166.442C80.5987 174.478 81.2893 178.499 81.2893 178.499L113.195 177.528C113.267 173.068 110.627 162.694 110.08 161.039C109.533 159.384 111.353 153.967 111.353 153.967C111.353 153.967 114.95 150.306 114.821 148.421C114.753 146.728 114.543 145.043 114.195 143.385L133.619 144.104L133.007 130.939L105.109 128.148C104.138 130.889 95.3537 129.543 95.3537 129.543C85.8719 129.86 85.282 131.601 81.3397 134.666C77.3973 137.73 70.8723 164.032 70.8723 164.032L80.5987 167.147Z" fill="#4CAF4F"/>
<path d="M99.4617 164.032C98.9088 164.131 98.3456 164.16 97.7855 164.118C96.7423 164.118 95.3107 164.046 93.7352 163.888C92.1597 163.73 90.7353 163.507 89.7209 163.305C89.1616 163.233 88.6132 163.093 88.0879 162.888C88.6503 162.888 89.2115 162.941 89.7641 163.046C90.7857 163.176 92.2029 163.356 93.7712 163.514C95.3395 163.672 96.7639 163.78 97.7927 163.852C98.3534 163.859 98.9123 163.919 99.4617 164.032Z" fill="#263238"/>
<path d="M101.649 161.32C101.095 161.591 100.511 161.791 99.9076 161.917C97.0374 162.671 94.0762 163.022 91.1093 162.96C90.4953 162.98 89.8813 162.922 89.282 162.787C89.8879 162.711 90.4987 162.68 91.1093 162.694C92.2387 162.658 93.7927 162.579 95.5048 162.377C97.217 162.176 98.7422 161.888 99.8213 161.658C100.421 161.498 101.032 161.385 101.649 161.32Z" fill="#263238"/>
<path d="M112.382 149.219C112.368 149.768 112.293 150.313 112.159 150.845C111.972 151.845 111.684 153.212 111.318 154.708C110.951 156.205 110.598 157.586 110.282 158.521C110.154 159.056 109.966 159.575 109.72 160.068C109.761 159.521 109.862 158.981 110.023 158.456C110.296 157.334 110.605 156.039 110.951 154.622C111.296 153.205 111.627 151.91 111.9 150.788C111.998 150.247 112.159 149.721 112.382 149.219Z" fill="#263238"/>
<path d="M80.9369 165.312C79.2726 165.055 77.6301 164.673 76.0234 164.169C74.3816 163.785 72.7705 163.28 71.2034 162.658C72.8669 162.919 74.5091 163.301 76.1169 163.802C77.7591 164.184 79.3702 164.689 80.9369 165.312Z" fill="#263238"/>
<path d="M114.54 143.227C114.269 143.273 113.992 143.273 113.72 143.227C112.969 143.15 112.231 142.973 111.526 142.701C110.349 142.259 109.278 141.576 108.381 140.695C107.484 139.814 106.781 138.755 106.318 137.586C105.805 136.301 105.586 134.917 105.677 133.536C105.709 132.397 106.05 131.288 106.663 130.328C107.094 129.681 107.738 129.205 108.483 128.982C108.682 128.927 108.888 128.901 109.094 128.903C109.238 128.903 109.31 128.903 109.31 128.903C109.31 128.903 109.008 128.903 108.526 129.097C107.843 129.35 107.263 129.823 106.879 130.443C105.9 131.982 105.627 134.795 106.67 137.421C107.156 138.659 107.916 139.771 108.893 140.673C109.694 141.411 110.616 142.004 111.62 142.428C112.561 142.8 113.54 143.068 114.54 143.227Z" fill="#263238"/>
<path d="M131.31 143.845C131.13 141.639 131.072 139.425 131.137 137.212C131.081 135.002 131.148 132.79 131.339 130.587C131.519 132.79 131.576 135.002 131.511 137.212C131.572 139.425 131.504 141.64 131.31 143.845Z" fill="#263238"/>
<path d="M104.922 128.954C105.001 127.349 105.167 125.536 105.167 125.536C105.167 125.536 109.138 125.098 109.375 120.997C109.612 116.896 109.375 107.436 109.375 107.436L102.181 103.753L94.1956 110.033L95.4257 130.536L102.749 131.004C103.309 131.019 103.852 130.812 104.259 130.428C104.667 130.044 104.905 129.513 104.922 128.954Z" fill="#FFBE9D"/>
<path d="M105.634 117.752C105.634 117.752 105.634 117.832 105.569 117.925C105.516 117.993 105.447 118.047 105.368 118.082C105.289 118.117 105.202 118.132 105.116 118.127C104.656 118.127 104.21 117.594 104.052 116.976C103.976 116.676 103.976 116.362 104.052 116.062C104.066 115.931 104.114 115.806 104.189 115.698C104.264 115.59 104.365 115.502 104.483 115.443C104.58 115.403 104.689 115.403 104.785 115.443C104.857 115.479 104.915 115.537 104.951 115.609C105.001 115.731 104.951 115.81 104.951 115.803C104.951 115.796 104.951 115.731 104.879 115.659C104.841 115.607 104.786 115.572 104.724 115.558C104.661 115.545 104.596 115.555 104.541 115.587C104.452 115.64 104.379 115.715 104.328 115.805C104.276 115.894 104.248 115.995 104.246 116.098C104.185 116.365 104.185 116.643 104.246 116.911C104.39 117.472 104.778 117.925 105.123 117.968C105.191 117.977 105.26 117.973 105.325 117.954C105.391 117.935 105.452 117.904 105.505 117.86C105.591 117.803 105.62 117.745 105.634 117.752Z" fill="#EB996E"/>
<path d="M111.843 105.22C111.289 103.336 109.282 102.4 107.454 101.882C104.67 101.091 101.663 100.746 98.9437 101.746C96.2244 102.746 92.9583 104.501 92.9583 107.501C91.354 107.371 90.4331 108.774 89.8001 110.515C89.3953 111.576 89.1528 112.692 89.0807 113.825C88.8792 117.752 87.7785 123.177 85.2318 126.054C83.793 127.659 81.8003 128.767 80.9802 130.767C80.2607 132.5 80.6348 134.558 79.9658 136.313C79.3687 137.86 78.0522 138.961 77.0882 140.306C76.106 141.832 75.5281 143.583 75.4085 145.394C75.289 147.205 75.6318 149.016 76.4047 150.658C77.1832 152.258 78.2793 153.683 79.6262 154.845C80.9731 156.008 82.5426 156.884 84.2391 157.421C87.5994 158.443 91.1829 158.478 94.5625 157.521C97.099 156.915 99.4651 155.742 101.483 154.09C103.548 152.403 104.966 150.055 105.498 147.442C106.008 144.507 105.188 141.522 104.577 138.601C102.663 129.371 103.21 128.889 105.627 120.321C105.685 120.17 105.713 120.011 105.757 119.86C105.8 119.709 105.821 119.637 105.85 119.522C105.919 119.184 105.955 118.839 105.958 118.493C105.605 118.625 105.222 118.653 104.853 118.574C104.485 118.494 104.147 118.312 103.879 118.047C103.61 117.765 103.423 117.416 103.337 117.036C103.25 116.656 103.269 116.26 103.39 115.889C103.559 115.484 103.812 115.119 104.132 114.818C104.452 114.517 104.831 114.286 105.246 114.141C106.044 113.81 106.9 113.637 107.685 113.271C109.346 112.479 110.497 110.839 111.282 109.12C111.926 107.928 112.125 106.546 111.843 105.22Z" fill="#263238"/>
<path d="M105.922 117.947C106.074 118.171 106.199 118.413 106.296 118.666C106.512 119.119 106.8 119.76 107.116 120.501L107.174 120.637H107.023L106.303 120.702C105.807 120.702 105.39 120.796 104.9 120.788C104.858 120.779 104.818 120.759 104.786 120.73C104.753 120.701 104.728 120.664 104.713 120.623C104.692 120.557 104.692 120.487 104.713 120.421C104.73 120.324 104.752 120.228 104.778 120.134L104.908 119.623C104.973 119.282 105.074 118.949 105.21 118.63C105.196 118.977 105.146 119.322 105.059 119.659L104.958 120.17C104.922 120.342 104.857 120.608 104.958 120.587C105.318 120.587 105.828 120.508 106.303 120.479L107.023 120.414L106.929 120.572C106.62 119.853 106.361 119.177 106.21 118.709C106.077 118.47 105.98 118.213 105.922 117.947Z" fill="#4CAF4F"/>
<path d="M81.2894 178.499L113.195 177.528L127.08 231.728L124.526 293.899H107.656L109.72 233.052L97.3825 195.319L99.2818 296.309L82.2319 296.561L80.4405 201.635C80.3614 198.995 79.4981 193.046 79.8218 190.427L81.2894 178.499Z" fill="#263238"/>
<path d="M101.627 196.089C101.105 196.121 100.58 196.09 100.066 195.995C99.1019 195.88 97.7854 195.678 96.3393 195.391C94.8933 195.103 93.5984 194.772 92.6632 194.506C92.1632 194.396 91.6796 194.222 91.2244 193.988C91.2244 193.88 93.5696 194.441 96.4473 195.024C99.3249 195.607 101.641 195.981 101.627 196.089Z" fill="#455A64"/>
<path d="M124.353 290.489C124.353 290.59 120.533 290.676 115.821 290.676C111.109 290.676 107.281 290.59 107.281 290.489C107.281 290.388 111.102 290.302 115.821 290.302C120.54 290.302 124.353 290.381 124.353 290.489Z" fill="#455A64"/>
<path d="M99.1307 293.683C99.1307 293.791 95.4185 293.87 90.8431 293.87C86.2677 293.87 82.5627 293.791 82.5627 293.683C82.5627 293.575 86.2749 293.496 90.8431 293.496C95.4113 293.496 99.1307 293.582 99.1307 293.683Z" fill="#455A64"/>
<path d="M96.9294 293.424C96.8287 293.424 96.3827 271.36 95.9294 244.145C95.4762 216.93 95.21 194.851 95.3035 194.851C95.3971 194.851 95.8575 216.908 96.3035 244.138C96.7496 271.367 97.0373 293.424 96.9294 293.424Z" fill="#455A64"/>
<path d="M122.087 290.489C122.079 290.391 122.079 290.292 122.087 290.194V289.331C122.087 288.554 122.145 287.439 122.188 286.022C122.288 283.144 122.432 278.964 122.612 273.842C123.001 263.54 123.547 249.339 124.145 233.663C124.145 233.512 124.145 233.368 124.145 233.239V233.289C120.368 218.182 116.95 204.47 114.469 194.549L111.591 182.816C111.26 181.442 111.008 180.37 110.828 179.621C110.742 179.269 110.684 178.996 110.634 178.787C110.606 178.693 110.589 178.597 110.584 178.499C110.621 178.59 110.65 178.684 110.67 178.78C110.728 178.981 110.8 179.255 110.9 179.6C111.095 180.319 111.375 181.413 111.735 182.78C112.454 185.557 113.469 189.556 114.735 194.484C117.238 204.398 120.691 218.074 124.519 233.203V233.253C124.519 233.383 124.519 233.534 124.519 233.678C123.878 249.353 123.296 263.547 122.871 273.849C122.648 278.979 122.461 283.13 122.332 286.022C122.26 287.46 122.202 288.554 122.166 289.331C122.166 289.698 122.123 289.986 122.116 290.194C122.117 290.293 122.107 290.392 122.087 290.489Z" fill="#455A64"/>
<path d="M116.584 231.973C115.372 232.371 114.124 232.648 112.857 232.8C111.303 233.066 109.979 233.253 109.382 233.282V233.138C109.577 233.196 109.677 233.232 109.677 233.26C109.677 233.289 109.555 233.26 109.354 233.26H108.922L109.354 233.131C109.915 232.965 111.238 232.692 112.792 232.411C114.039 232.141 115.308 231.994 116.584 231.973Z" fill="#455A64"/>
<path d="M116.289 234.037C115.166 234.089 114.042 234.038 112.929 233.886C111.805 233.863 110.686 233.74 109.584 233.519C111.832 233.336 114.095 233.511 116.289 234.037Z" fill="#455A64"/>
<path opacity="0.2" d="M81.1528 179.643C81.5307 180.128 82.0066 180.528 82.5496 180.817C83.0925 181.106 83.6903 181.277 84.3038 181.319C85.5888 181.471 86.8886 181.447 88.167 181.247C96.4042 180.334 105.131 179.492 113.195 177.528C102.757 178.111 91.7281 177.916 81.2895 178.499L81.1816 179.391" fill="black"/>
<g opacity="0.2">
<path d="M91.908 194.355L97.7927 217.189L97.3826 195.319L91.908 194.355Z" fill="black"/>
</g>
</svg>
