<svg width="14" height="14" viewBox="0 0 14 14" fill="none" xmlns="http://www.w3.org/2000/svg">
<path fill-rule="evenodd" clip-rule="evenodd" d="M12.4609 1.58584C12.6027 1.72765 12.6508 1.93816 12.5845 2.12745L8.93014 12.5685C8.85943 12.7705 8.67255 12.9089 8.45867 12.9176C8.2448 12.9264 8.04727 12.8037 7.96034 12.6081L5.95368 8.09307L1.43869 6.08641C1.24309 5.99948 1.12037 5.80195 1.1291 5.58807C1.13782 5.3742 1.27622 5.18732 1.47826 5.11661L11.9193 1.46225C12.1086 1.39599 12.3191 1.44403 12.4609 1.58584ZM6.97186 7.81318L8.37965 10.9807L10.8433 3.94176L6.97186 7.81318ZM10.105 3.20346L3.06604 5.6671L6.23357 7.07489L10.105 3.20346Z" fill="white"/>
</svg>
